<?xml version="1.0" encoding="utf-8"?>
<!-- Generator: Adobe Illustrator 22.1.0, SVG Export Plug-In . SVG Version: 6.00 Build 0)  -->
<svg version="1.1" id="图层_1" xmlns="http://www.w3.org/2000/svg" xmlns:xlink="http://www.w3.org/1999/xlink" x="0px" y="0px"
	 viewBox="0 0 12 14" style="enable-background:new 0 0 12 14;" xml:space="preserve">
<style type="text/css">
	.st0{fill-rule:evenodd;clip-rule:evenodd;fill:#808080;}
</style>
<path class="st0" d="M10,11c0,1.1-0.9,2-2,2H2c-1.1,0-2-0.9-2-2V5c0-1.1,0.9-2,2-2h1c0-1.1,0.9-2,2-2h5c1.1,0,2,0.9,2,2v6
	C12,10.1,11.1,11,10,11z M11,3c0-0.6-0.4-1-1-1H5C4.4,2,4,2.4,4,3h4c1.1,0,2,0.9,2,2v5c0.6,0,1-0.4,1-1V3z"/>
</svg>
