<?xml version="1.0" encoding="utf-8"?>
<!-- Generator: Adobe Illustrator 22.1.0, SVG Export Plug-In . SVG Version: 6.00 Build 0)  -->
<svg version="1.1" id="图层_1" xmlns="http://www.w3.org/2000/svg" xmlns:xlink="http://www.w3.org/1999/xlink" x="0px" y="0px"
	 viewBox="0 0 18 18" style="enable-background:new 0 0 18 18;" xml:space="preserve">
<style type="text/css">
	.st0{fill:#AAAAAA;}
</style>
<path class="st0" d="M9,5.2c-2.5,0-4.6,2-4.6,4.5L4,15h10l-0.4-5.3C13.6,7.2,11.6,5.2,9,5.2L9,5.2z M10.1,6.6
	c0.1-0.2,0.3-0.3,0.5-0.2c0.6,0.3,1.1,0.7,1.5,1.3c0.4,0.6,0.6,1.2,0.6,1.9v2.2c0,0.2-0.2,0.4-0.4,0.4c-0.2,0-0.4-0.2-0.4-0.4V9.6
	c0-1.1-0.6-2-1.6-2.5C10.1,7,10,6.8,10.1,6.6L10.1,6.6z M8.4,3c0.1,0.4,0.4,0.6,0.7,0.6c0.4,0,0.8-0.3,0.8-0.7V0.7
	C9.9,0.3,9.5,0,9.1,0C8.7,0,8.4,0.3,8.4,0.7V3z M12.5,5c0.3,0.3,0.8,0.2,1.1-0.1l1.5-1.6c0.3-0.3,0.2-0.8-0.1-1
	C14.7,2,14.2,2,13.9,2.3l-1.5,1.6c-0.1,0.2-0.2,0.4-0.2,0.6C12.3,4.7,12.4,4.9,12.5,5L12.5,5z M18,7.6C17.9,7.2,17.5,7,17.1,7
	L15,7.3c-0.4,0.1-0.7,0.4-0.6,0.8c0.1,0.4,0.4,0.7,0.9,0.6l2.2-0.3C17.8,8.4,18,8,18,7.6L18,7.6z M18,16H3c-2.9,0.1-2.8,2,0,2
	c2.8,0,12,0,12,0c2.9,0,3-2,0-2S18,16,18,16z M3.1,3l1.4,1.7c0.3,0.3,0.7,0.4,1,0.1c0.3-0.3,0.4-0.7,0.1-1L4.3,2.1
	C4,1.8,3.6,1.7,3.3,2C3,2.1,2.9,2.4,3,2.7C3,2.8,3,2.9,3.1,3L3.1,3z M3.6,7.9C3.7,7.5,3.4,7.1,3,7.1L0.9,6.6C0.5,6.6,0.1,6.8,0,7.2
	c0,0.1,0,0.2,0,0.3c0,0.3,0.3,0.5,0.6,0.6l2.2,0.4C3.2,8.6,3.6,8.3,3.6,7.9L3.6,7.9z M3.6,7.9"/>
</svg>
