<?xml version="1.0" encoding="utf-8"?>
<!-- Generator: Adobe Illustrator 19.0.0, SVG Export Plug-In . SVG Version: 6.00 Build 0)  -->
<svg version="1.1" xmlns="http://www.w3.org/2000/svg" xmlns:xlink="http://www.w3.org/1999/xlink" x="0px" y="0px"
	 viewBox="0 0 18 18" xml:space="preserve">
<path d="M17,7.2V14h1v4h-4v-1H4v1H0v-4h1v-0.2l0,0v-2.6l0,0V9.8l0,0V7.2l0,0V5.8l0,0V4H0V0h4v1h10V0h4v4
	h-1V7.2z M14,16v-1.8L12.2,16H14z M2,4v0.8L2.8,4H2z M4,2v0.8L4.8,2H4z M6.2,2L2,6.2v2.6L8.8,2H6.2z M10.2,2L2,10.2v2.6L12.8,2H10.2
	z M14,4V2.2L2.2,14H4v0.8L14.8,4H14z M16,4.2L4.2,16h2.6L16,6.8V4.2z M16,8.2L8.2,16h2.6l5.2-5.2V8.2z M14.2,14H16v-1.8L14.2,14z"/>
</svg>
