<?xml version="1.0" encoding="utf-8"?>
<!-- Generator: Adobe Illustrator 22.1.0, SVG Export Plug-In . SVG Version: 6.00 Build 0)  -->
<svg version="1.1" xmlns="http://www.w3.org/2000/svg" xmlns:xlink="http://www.w3.org/1999/xlink" x="0px" y="0px"
	 viewBox="0 0 16 18" xml:space="preserve">
<path d="M8,18c-5.2,0-8-6-8-6V2c2.8,0.2,5.6-0.5,8-2c2.4,1.5,5.2,2.2,8,2v10C16,12,13.5,18,8,18z
	 M15,2.9c-2.4,0.2-4.8-0.2-7-1.1C5.7,2.5,3.4,3,1,3.1v8.6c0,0,2.9,5.3,7,5.3s7-5.1,7-5.1V2.9z M8,9h6v3c0,0-2.6,3.4-6,4V9z M2,4.2
	c2.1,0,4.1-0.4,6-1.2v6H2V4.2z"/>
</svg>
