<?xml version="1.0" encoding="utf-8"?>
<!-- Generator: Adobe Illustrator 19.0.0, SVG Export Plug-In . SVG Version: 6.00 Build 0)  -->
<svg version="1.1" viewBox="0 0 28 28">
<path d="M27.7,18.1C25.8,7.5,17.2,9.4,14.5,9c-2.7-0.4-3.3-3.8-3-5.1c0.2-1.3,2.3-4,5.1-3
	C30.3,5.3,27.7,18.1,27.7,18.1z M16.5,2.8c-4.5-0.9-3.2,4-1.7,4c1.5,0,6.6,0.5,8.6,1.3C23.5,8.1,21.1,3.7,16.5,2.8z M8.6,16.3
	c0.8,2.6-2.1,4.1-3.4,4.5s-4.5-0.4-4.9-3.3C-1.5,3.1,11.2,0,11.2,0C2.4,6.2,7.8,13.7,8.6,16.3z M2.1,16.7c1.3,5,5.4,0.7,4.5-0.9
	s-2-4-2.1-8.4C4.5,7.5,0.8,11.7,2.1,16.7z M17.3,18.3c1.8-2.1,5.1-1.3,6.1-0.5c1,0.9,2.2,4-0.1,5.9c-11,9.4-20.5,0.5-20.5,0.5
	C12.8,28.1,15.6,20.3,17.3,18.3z M21.5,22.4c3.9-3.6-1.8-4.3-2.5-3.3c-0.7,1-3.3,4.9-5.9,6.7C13.1,25.8,17.6,26,21.5,22.4z"/>
</svg>
