<?xml version="1.0" encoding="utf-8"?>
<!-- Generator: Adobe Illustrator 19.0.0, SVG Export Plug-In . SVG Version: 6.00 Build 0)  -->
<svg version="1.1" xmlns="http://www.w3.org/2000/svg" xmlns:xlink="http://www.w3.org/1999/xlink" x="0px" y="0px"
	 viewBox="0 0 18 18" xml:space="preserve">
<path d="M14.9,4.2L11.1,8l6.6,6.7c0.4,0.4,0.4,1.1,0,1.5l-1.5,1.5c-0.4,0.4-1.1,0.4-1.5,0
	c0,0,0,0,0,0L8,11l-0.8,0.8l0.2,0.2c0.5,0.5,0.5,1.3,0,1.7c0,0,0,0,0,0l-4,3.9c-0.5,0.5-1.3,0.5-1.8,0l-1.3-1.3
	c-0.5-0.5-0.5-1.3,0-1.7c0,0,0,0,0,0L4,10.9c-0.9-0.2-1.7-0.7-2.4-1.4C0,7.8-0.5,5.3,0.6,3.2l3,3c0.4,0.4,0.9,0.4,1.3,0l1.3-1.3
	c0.4-0.4,0.4-0.9,0-1.3l-3-3c2.7-1.3,6-0.2,7.4,2.6C11,4.1,11.1,5.1,11,6.1l2.8-2.8l0,0l0-1.6L16.7,0L18,1.3l-1.7,2.9L14.9,4.2z
	 M15.4,16.5l1-1L10.1,9l-1,1L15.4,16.5z M8.9,3c-1.9-1.8-3-1.2-3-1.2l2.6,2.7c0,0,0.2,0.5-0.7,1.3C7.4,6.2,5.8,7.7,5.2,8.1
	C4.6,8.5,3.6,7.8,3.6,7.8l-2-1.9c0,0,0.3,4.5,5.7,3.7l0.3-0.1l2.2-2.2C10,6.2,10.2,4.2,8.9,3z"/>
</svg>
