<?xml version="1.0" encoding="utf-8"?>
<!-- Generator: Adobe Illustrator 19.0.0, SVG Export Plug-In . SVG Version: 6.00 Build 0)  -->
<svg version="1.1" xmlns="http://www.w3.org/2000/svg" xmlns:xlink="http://www.w3.org/1999/xlink" x="0px" y="0px"
	 viewBox="0 0 18 20" xml:space="preserve">
<path d="M16.1,13.1c-0.2,1.1-0.9,2-2,2.5c-1,0.4-2.2,0.2-3-0.5c-0.4,0.2-0.8,0.3-1.2,0.5V20H8v-4.2
	c-0.9,0-1.7-0.5-2.2-1.2c0,0-4.3,1.4-4.9-3c0,0-2.3-3.9,0.5-6c0-1.9,1.5-3.4,3.4-3.5c0,0,0,0,0,0c0,0,1.9-4.1,5.4-1
	c0,0,3.3-1.4,4.4,2c0,0,3.3-0.1,3,4.5C17.6,7.6,19.2,11.4,16.1,13.1z M16,8c-0.3-3-2.3-3.4-2.3-3.4C12.4,2.4,9.8,3,9.8,3
	c-2.3-2.4-4,0.7-4,0.7c-3.3,0.2-3,2.9-3,2.9c-1.5,3.1,0.1,4.7,0.1,4.7c0.1,2.5,3.3,1.7,3.3,1.7c0.2,0.9,0.9,1.5,1.8,1.5V14
	c-1.5-1.5-2.8-3.3-3.6-5.2C5.4,10,6.7,11.1,8,12V9h2v3c1.2-0.3,2.3-1,3-2c-0.8,3-3,3-3,3v1.2c0.4-0.1,0.8-0.2,1.2-0.3
	c3.6,1.2,3.5-1.4,3.5-1.4C15.9,11.3,16.3,9.6,16,8L16,8z M4.4,8.8C4.2,8.6,4.1,8.3,4,8C4,8,4.1,8.3,4.4,8.8L4.4,8.8z"/>
</svg>
