<?xml version="1.0" encoding="utf-8"?>
<!-- Generator: Adobe Illustrator 19.0.0, SVG Export Plug-In . SVG Version: 6.00 Build 0)  -->
<svg version="1.1" xmlns="http://www.w3.org/2000/svg" xmlns:xlink="http://www.w3.org/1999/xlink" x="0px" y="0px"
	 viewBox="0 0 18 18" xml:space="preserve">
<path d="M17.8,13.1c-0.6,2.6-2.3,5.6-4.8,2.9c0,0-3.4,2.1-5,2l0-1.3c0,0,4.3,0.9,7.4-5.6
	c-1.1,1.6-2.7,3-4.4,3.9c-1.2-0.7-1.6-2.1-1.1-3.3c0.9-2.3,5.8-3.7,8-3.7C18,9.7,18,11.4,17.8,13.1z M14.8,4.1
	c-0.5,0.5-1,0.9-1.6,1.2c0.2,0.6,0.3,1.2,0.3,1.7c-0.3,0.1-0.7,0.2-1,0.3c-0.1-0.6-0.2-1.1-0.3-1.6c-2.1,0.8-4.4,0.8-6.5,0
	C5.5,6.6,5.4,7.5,5.4,8.4h5.3C10.4,8.6,10.2,8.8,10,9C9.8,9.2,9.7,9.3,9.6,9.5H5.4c0,0.9,0.2,1.8,0.4,2.7c0.8-0.3,1.7-0.5,2.6-0.6
	c-0.1,0.4-0.2,0.7-0.2,1.1c-0.7,0.1-1.4,0.2-2.1,0.5c0.3,1.1,0.9,2,1.6,2.9l-1.9,1.4l0,0l-0.2-0.1c-0.1,0-0.2-0.1-0.2-0.1l-0.1-0.1
	c-0.1,0-0.2-0.1-0.2-0.1L4.8,17c-0.1,0-0.2-0.1-0.3-0.1l-0.1-0.1c-0.1,0-0.2-0.1-0.3-0.2l-0.1-0.1C4,16.5,4,16.5,3.9,16.4l-0.1-0.1
	c-0.1-0.1-0.2-0.1-0.3-0.2l-0.1,0C3.4,16,3.3,16,3.2,15.9l0,0c-0.1-0.1-0.2-0.2-0.3-0.2c-0.1-0.1-0.3-0.3-0.4-0.4
	c-0.1-0.1-0.2-0.2-0.3-0.3l0,0c-0.1-0.1-0.2-0.2-0.3-0.3l0,0c-0.1-0.1-0.2-0.2-0.2-0.3l0,0c-0.1-0.1-0.2-0.2-0.2-0.3c0,0,0,0,0,0
	c-0.1-0.1-0.1-0.2-0.2-0.3l0,0c-0.1-0.1-0.1-0.2-0.2-0.3c0,0,0,0,0,0C1,13,0.9,12.9,0.9,12.8c0,0,0,0,0-0.1c0-0.1-0.1-0.2-0.1-0.3
	c0,0,0-0.1,0-0.1c0-0.1-0.1-0.2-0.1-0.3c0,0,0-0.1,0-0.1c0-0.1-0.1-0.2-0.1-0.3c0,0,0-0.1,0-0.1c0-0.1-0.1-0.2-0.1-0.3
	c0-0.1,0-0.1,0-0.2c0-0.1,0-0.2-0.1-0.3c0-0.1,0-0.1,0-0.2c0-0.1,0-0.2,0-0.2s0-0.1,0-0.2s0-0.1,0-0.2c0-0.1,0-0.2,0-0.3
	c0-0.1,0-0.1,0-0.2C0,9.3,0,9.2,0,9c0-0.2,0-0.3,0-0.5c0,0,0-0.1,0-0.2c0-0.1,0-0.2,0-0.3c0-0.1,0-0.1,0-0.2c0-0.1,0-0.2,0-0.3
	c0-0.1,0-0.1,0-0.2c0-0.1,0-0.2,0-0.2c0-0.1,0-0.1,0-0.2s0-0.2,0.1-0.2s0-0.1,0.1-0.2s0-0.1,0.1-0.2s0-0.1,0.1-0.2s0-0.1,0.1-0.2
	s0-0.1,0.1-0.2s0.1-0.1,0.1-0.2s0.1-0.1,0.1-0.2s0.1-0.1,0.1-0.2S0.9,5.1,0.9,5S1,4.9,1,4.8s0.1-0.1,0.1-0.2s0.1-0.1,0.1-0.2
	s0.1-0.1,0.1-0.2s0.1-0.1,0.1-0.2S1.5,4,1.6,3.9s0.1-0.1,0.1-0.2s0.1-0.1,0.1-0.2s0.1-0.1,0.1-0.1S2,3.3,2.1,3.2
	c0,0,0.1-0.1,0.1-0.1C2.2,3,2.3,3,2.3,2.9c0.2-0.2,0.3-0.3,0.5-0.5C3,2.3,3.1,2.2,3.2,2.1l0,0C3.3,2,3.4,2,3.5,1.9l0,0
	c0.1-0.1,0.2-0.1,0.3-0.2l0,0C3.9,1.5,4,1.5,4.1,1.4l0.1,0c0.1-0.1,0.2-0.1,0.3-0.2l0.1,0C4.7,1.1,4.7,1.1,4.8,1l0.1,0
	c0.1,0,0.2-0.1,0.3-0.1l0.1-0.1c0.1,0,0.2-0.1,0.3-0.1l0.1-0.1c0.1,0,0.2-0.1,0.3-0.1l0.2-0.1c0.1,0,0.2-0.1,0.3-0.1l0.2,0
	c0.1,0,0.2,0,0.2-0.1c0.1,0,0.1,0,0.2,0s0.2,0,0.2-0.1s0.1,0,0.2,0s0.1,0,0.2,0s0.2,0,0.2,0S8,0,8.1,0c0.1,0,0.2,0,0.3,0
	c0.1,0,0.1,0,0.2,0C8.7,0,8.8,0,9,0c0.2,0,0.3,0,0.5,0c0.1,0,0.1,0,0.2,0c0.1,0,0.2,0,0.3,0c0.1,0,0.1,0,0.2,0c0.1,0,0.2,0,0.3,0
	c0.1,0,0.1,0,0.2,0s0.2,0,0.2,0s0.1,0,0.2,0s0.1,0,0.2,0.1s0.1,0,0.2,0.1s0.1,0,0.2,0.1s0.1,0,0.2,0.1L12,0.5c0.1,0,0.1,0.1,0.2,0.1
	s0.1,0,0.2,0.1s0.1,0.1,0.2,0.1l0.2,0.1c0.1,0,0.1,0.1,0.2,0.1L13.2,1c0.1,0,0.1,0.1,0.2,0.1l0.1,0.1c0.1,0,0.1,0.1,0.2,0.1l0.1,0.1
	c0.1,0,0.1,0.1,0.2,0.1c0,0,0.1,0.1,0.1,0.1c0.1,0.1,0.2,0.1,0.2,0.2l0.1,0.1C14.6,2,14.7,2,14.8,2.1l0.1,0.1
	c0.1,0.1,0.2,0.1,0.3,0.2c0.2,0.2,0.4,0.4,0.6,0.6c0,0.1,0.1,0.1,0.1,0.2s0.1,0.1,0.1,0.2s0.1,0.1,0.1,0.2s0.1,0.1,0.1,0.2
	s0.1,0.1,0.1,0.2s0.1,0.1,0.1,0.2s0.1,0.1,0.1,0.2s0.1,0.1,0.1,0.2s0.1,0.1,0.1,0.2s0.1,0.1,0.1,0.2s0.1,0.1,0.1,0.2S17,4.9,17.1,5
	s0.1,0.1,0.1,0.2s0.1,0.1,0.1,0.2s0.1,0.1,0.1,0.2l0.1,0.2c0,0.1,0,0.1,0.1,0.2s0,0.1,0.1,0.2s0,0.1,0.1,0.2s0,0.1,0.1,0.2
	c0,0.1,0,0.1,0,0.2c-0.5-0.1-1-0.1-1.5-0.1C15.9,5.7,15.4,4.9,14.8,4.1z M6.5,16.2c-0.6-0.8-1.1-1.7-1.4-2.6
	c-0.5,0.3-0.9,0.6-1.3,0.9C4.5,15.2,5.5,15.8,6.5,16.2z M3.1,13.8c0.5-0.5,1-0.9,1.6-1.2c-0.3-1-0.4-2.1-0.5-3.2H1.4
	C1.5,11.1,2.1,12.6,3.1,13.8z M3.1,4.2c-1,1.2-1.6,2.7-1.7,4.3h2.9c0-1,0.2-2.1,0.5-3.1C4.2,5,3.6,4.6,3.1,4.2L3.1,4.2z M3.8,3.5
	c0.4,0.4,0.9,0.7,1.3,0.9c0.3-0.9,0.8-1.8,1.4-2.5C5.5,2.2,4.6,2.8,3.8,3.5z M9.7,1.4c-0.2,0-0.5,0-0.7,0s-0.5,0-0.8,0
	c-1,0.9-1.8,2-2.2,3.3c1.9,0.6,4,0.6,5.9,0C11.5,3.5,10.8,2.3,9.7,1.4z M11.5,1.8c0.6,0.8,1,1.6,1.4,2.5c0.5-0.2,0.9-0.5,1.3-0.9
	C13.4,2.7,12.5,2.2,11.5,1.8L11.5,1.8z"/>
</svg>
